<?xml version="1.0" encoding="UTF-8" standalone="no"?>
<!DOCTYPE svg PUBLIC "-//W3C//DTD SVG 1.1//EN" "http://www.w3.org/Graphics/SVG/1.1/DTD/svg11.dtd">
<svg xmlns="http://www.w3.org/2000/svg" version="1.1" viewBox="0.00 0.00 465.00 148.00">
<path fill="#f0853b" d="
  M 80.30 73.13
  A 0.38 0.38 0.0 0 0 80.93 73.18
  L 91.30 59.91
  Q 91.63 59.49 91.65 58.95
  L 91.97 52.56
  Q 92.00 51.95 91.41 51.78
  L 86.76 50.42
  Q 86.31 50.29 85.96 49.98
  Q 80.28 44.89 84.27 39.01
  C 86.10 36.32 89.43 35.80 92.46 35.69
  A 0.52 0.52 0.0 0 0 92.95 35.05
  C 92.34 32.48 90.88 29.20 92.19 26.84
  C 94.43 22.81 99.16 23.67 101.96 27.19
  Q 102.29 27.61 102.77 27.39
  C 108.25 24.81 111.10 22.63 115.46 28.61
  Q 117.37 31.23 120.28 32.72
  C 126.41 35.84 124.10 41.19 120.38 45.13
  Q 119.90 45.64 120.31 46.21
  L 123.17 50.17
  Q 123.53 50.68 124.13 50.49
  C 129.15 48.92 134.24 47.83 137.53 52.66
  A 1.70 1.66 -59.8 0 1 137.81 53.77
  L 137.47 57.26
  A 0.89 0.88 -67.8 0 0 137.79 58.04
  C 147.54 66.04 144.92 69.58 135.49 75.35
  A 0.96 0.94 -15.9 0 0 135.03 76.16
  C 135.05 84.34 125.15 87.78 120.86 80.49
  A 0.55 0.54 -31.1 0 0 120.10 80.31
  C 118.52 81.28 116.94 82.51 115.11 82.69
  C 106.83 83.49 106.63 76.73 108.02 70.85
  A 0.41 0.41 0.0 0 0 107.44 70.38
  L 92.68 77.58
  A 0.35 0.35 0.0 0 0 92.72 78.23
  C 94.05 78.69 105.10 81.10 105.08 81.44
  A 1.88 1.87 -10.1 0 1 103.97 83.02
  Q 97.98 85.68 92.38 89.09
  C 88.00 91.75 84.69 92.10 80.03 90.76
  C 74.60 89.20 68.68 96.99 66.43 100.64
  C 65.00 102.95 55.20 119.70 53.83 119.64
  A 0.47 0.47 0.0 0 1 53.44 118.93
  Q 57.84 111.59 60.48 103.59
  C 61.63 100.08 55.55 97.27 53.45 95.91
  C 48.91 92.98 46.74 90.58 44.12 86.36
  A 1.04 1.04 0.0 0 1 44.83 84.78
  C 47.89 84.27 54.13 87.82 57.19 88.94
  A 0.70 0.70 0.0 0 0 58.13 88.39
  C 58.51 85.90 57.45 84.66 55.20 83.54
  Q 49.50 80.71 47.32 74.85
  A 0.88 0.88 0.0 0 1 48.29 73.68
  Q 50.89 74.12 53.05 75.74
  A 0.64 0.63 -74.7 0 0 54.06 75.16
  C 53.70 71.92 51.70 67.18 47.53 68.01
  C 44.46 68.62 43.38 72.18 40.25 73.14
  C 32.69 75.46 33.52 64.06 33.19 60.00
  A 1.23 1.22 -8.1 0 0 31.72 58.90
  C 28.98 59.45 26.09 59.12 24.85 56.23
  C 22.11 49.82 27.16 47.85 31.58 45.57
  Q 32.08 45.30 31.94 44.75
  C 31.29 42.11 27.69 34.80 31.75 33.15
  C 36.02 31.41 37.92 36.08 39.98 38.75
  A 0.46 0.46 0.0 0 0 40.71 38.76
  C 42.17 36.90 43.41 34.94 45.60 34.05
  C 50.64 32.01 56.56 35.42 54.70 41.54
  A 0.63 0.63 0.0 0 0 55.12 42.33
  C 60.23 43.86 64.80 48.18 59.57 53.33
  Q 58.25 54.62 57.65 55.62
  A 0.92 0.91 -46.5 0 0 57.67 56.60
  Q 60.58 60.98 57.99 65.58
  Q 57.73 66.04 57.30 66.35
  Q 56.09 67.20 55.56 68.48
  C 54.69 70.59 57.80 78.17 58.55 80.48
  A 0.58 0.58 0.0 0 0 59.68 80.33
  C 59.90 75.87 59.91 70.57 61.32 66.53
  C 61.66 65.54 63.63 60.52 64.59 60.31
  A 0.97 0.97 0.0 0 1 65.76 61.15
  C 66.81 70.11 68.64 81.41 62.32 88.81
  A 3.35 3.33 -30.6 0 0 61.58 91.64
  L 63.04 98.91
  A 0.40 0.40 0.0 0 0 63.77 99.05
  C 65.55 96.26 74.53 83.70 73.77 81.12
  C 71.68 74.01 75.36 66.42 77.75 59.83
  A 1.19 1.19 0.0 0 1 79.88 59.60
  C 82.02 63.03 78.85 70.61 80.30 73.13
  Z
  M 99.09 38.22
  Q 101.58 39.73 101.06 36.87
  Q 100.24 32.33 98.96 27.96
  A 1.08 1.07 -89.0 0 0 98.29 27.26
  Q 95.56 26.28 93.69 28.51
  A 1.04 1.01 -29.1 0 0 93.46 29.28
  Q 94.13 35.21 99.09 38.22
  Z
  M 104.43 28.76
  L 103.45 35.24
  A 2.27 2.27 0.0 0 0 105.36 37.83
  L 106.67 38.03
  A 5.76 5.47 8.6 0 0 113.19 33.48
  L 113.21 33.32
  A 5.76 5.47 8.6 0 0 108.33 27.05
  L 107.02 26.85
  A 2.27 2.27 0.0 0 0 104.43 28.76
  Z
  M 119.36 41.73
  C 124.89 37.33 116.71 31.06 113.70 36.28
  C 112.63 38.13 111.66 39.79 111.75 41.80
  Q 111.77 42.32 112.26 42.50
  Q 116.43 44.06 119.36 41.73
  Z
  M 33.75 36.09
  L 31.87 37.18
  A 0.79 0.79 0.0 0 0 31.58 38.26
  L 32.49 39.85
  A 8.10 1.81 60.0 0 0 38.11 45.96
  L 38.23 45.89
  A 8.10 1.81 60.0 0 0 35.75 37.97
  L 34.83 36.38
  A 0.79 0.79 0.0 0 0 33.75 36.09
  Z
  M 43.11 45.89
  C 45.94 45.19 53.72 42.23 52.38 38.05
  Q 52.21 37.53 51.75 37.25
  Q 49.25 35.71 46.33 36.02
  Q 45.82 36.08 45.44 36.42
  Q 41.70 39.88 42.01 45.08
  A 0.89 0.89 0.0 0 0 43.11 45.89
  Z
  M 92.92 49.60
  L 97.04 45.81
  A 2.46 2.46 0.0 0 0 97.18 42.34
  L 95.44 40.44
  A 6.81 5.20 47.4 0 0 87.01 38.95
  L 86.92 39.03
  A 6.81 5.20 47.4 0 0 87.70 47.57
  L 89.44 49.46
  A 2.46 2.46 0.0 0 0 92.92 49.60
  Z
  M 50.00 50.27
  L 56.67 52.46
  A 1.26 1.26 0.0 0 0 58.26 51.66
  L 58.39 51.28
  A 4.50 4.39 -71.8 0 0 55.62 45.63
  L 54.90 45.40
  A 4.50 4.39 -71.8 0 0 49.33 48.30
  L 49.20 48.68
  A 1.26 1.26 0.0 0 0 50.00 50.27
  Z
  M 109.51 48.50
  L 109.65 54.06
  A 2.29 2.29 0.0 0 0 111.99 56.29
  L 112.08 56.29
  A 8.24 5.01 -1.4 0 0 120.20 51.08
  L 120.20 50.96
  A 8.24 5.01 -1.4 0 0 111.84 46.15
  L 111.75 46.16
  A 2.29 2.29 0.0 0 0 109.51 48.50
  Z
  M 38.28 50.03
  C 27.21 43.84 22.32 56.72 31.80 56.84
  C 34.95 56.88 37.33 53.37 38.54 50.86
  Q 38.80 50.33 38.28 50.03
  Z
  M 96.68 59.75
  A 2.17 2.16 65.3 0 0 98.88 60.57
  Q 104.24 59.39 107.06 54.61
  C 111.39 47.27 97.97 50.93 95.66 52.03
  A 1.06 1.06 0.0 0 0 95.08 52.81
  Q 94.41 56.69 96.68 59.75
  Z
  M 133.33 52.65
  C 126.88 49.62 118.74 55.94 126.31 60.18
  Q 126.76 60.43 127.22 60.19
  C 128.72 59.41 138.32 55.00 133.33 52.65
  Z
  M 54.12 65.32
  L 56.98 63.76
  A 1.32 1.32 0.0 0 0 57.51 61.97
  L 56.96 60.96
  A 8.99 2.89 61.4 0 0 50.12 54.45
  L 50.01 54.51
  A 8.99 2.89 61.4 0 0 51.78 63.78
  L 52.33 64.79
  A 1.32 1.32 0.0 0 0 54.12 65.32
  Z
  M 38.72 70.56
  C 46.29 69.55 46.12 60.93 43.59 55.78
  A 1.55 1.55 0.0 0 0 41.65 55.01
  C 34.20 57.84 35.88 63.45 37.20 69.50
  A 1.37 1.37 0.0 0 0 38.72 70.56
  Z
  M 107.39 58.41
  C 102.62 62.47 99.51 64.41 93.36 61.00
  Q 92.81 60.69 92.45 61.20
  C 89.92 64.69 72.21 87.51 72.28 89.65
  A 0.61 0.60 -25.9 0 0 73.35 90.02
  C 76.86 85.78 79.71 82.42 84.73 79.73
  Q 97.36 72.96 110.00 66.22
  Q 112.77 64.74 114.94 62.30
  A 1.86 1.86 0.0 0 0 113.49 59.21
  Q 110.69 59.30 108.32 58.27
  A 0.89 0.89 0.0 0 0 107.39 58.41
  Z
  M 117.87 58.35
  L 117.87 62.33
  A 0.10 0.10 0.0 0 0 117.97 62.43
  L 118.00 62.43
  A 1.92 1.73 89.9 0 0 119.73 60.51
  L 119.73 60.17
  A 1.92 1.73 89.9 0 0 118.00 58.25
  L 117.97 58.25
  A 0.10 0.10 0.0 0 0 117.87 58.35
  Z
  M 138.58 62.17
  Q 133.82 59.43 129.57 62.92
  Q 129.12 63.29 129.43 63.78
  L 133.95 70.77
  Q 134.25 71.22 134.77 71.33
  C 140.77 72.58 144.02 65.30 138.58 62.17
  Z
  M 112.7030 79.9185
  A 6.43 4.92 111.6 0 0 119.6445 75.7512
  A 6.43 4.92 111.6 0 0 117.4370 67.9615
  A 6.43 4.92 111.6 0 0 110.4955 72.1288
  A 6.43 4.92 111.6 0 0 112.7030 79.9185
  Z
  M 127.27 68.31
  C 121.48 70.81 121.16 83.76 129.08 81.65
  C 135.72 79.88 130.84 72.18 128.13 68.54
  Q 127.79 68.08 127.27 68.31
  Z
  M 75.7796 77.2612
  A 4.20 1.14 99.6 0 0 77.6040 73.3101
  A 4.20 1.14 99.6 0 0 77.1804 68.9788
  A 4.20 1.14 99.6 0 0 75.3560 72.9299
  A 4.20 1.14 99.6 0 0 75.7796 77.2612
  Z
  M 62.88 70.91
  C 61.91 76.30 62.04 81.23 60.24 86.40
  A 0.54 0.54 0.0 0 0 61.20 86.89
  Q 65.96 80.10 64.56 71.74
  Q 64.39 70.69 63.70 70.44
  Q 63.01 70.19 62.88 70.91
  Z
  M 96.26 81.61
  C 90.02 79.96 83.90 83.07 79.68 87.50
  Q 79.35 87.86 79.74 88.15
  C 85.40 92.25 92.82 87.01 96.61 82.82
  A 0.74 0.73 -61.3 0 0 96.26 81.61
  Z
  M 48.65 90.31
  L 58.12 96.99
  A 0.12 0.12 0.0 0 0 58.28 96.97
  L 58.28 96.96
  A 5.72 3.12 35.2 0 0 55.41 91.12
  L 55.10 90.90
  A 5.72 3.12 35.2 0 0 48.63 90.15
  L 48.62 90.15
  A 0.12 0.12 0.0 0 0 48.65 90.31
  Z"
/>
<path fill="#ffffff" d="
  M 354.66 44.02
  C 356.12 39.73 365.41 31.57 367.06 30.08
  C 372.47 25.21 380.45 31.73 374.57 36.85
  Q 370.46 40.42 361.22 46.23
  C 359.35 47.40 357.41 47.68 355.59 46.58
  A 2.18 2.18 0.0 0 1 354.66 44.02
  Z"
/>
<path fill="#ffffff" d="
  M 218.24 52.90
  A 0.60 0.60 0.0 0 0 218.93 52.31
  L 219.15 43.57
  Q 219.16 42.98 219.61 42.57
  Q 224.15 38.47 230.29 37.76
  A 1.09 1.08 -3.3 0 1 231.50 38.83
  L 231.50 52.50
  A 0.73 0.72 -2.9 0 0 232.30 53.22
  C 234.53 52.97 240.95 52.00 242.67 53.55
  C 244.24 54.96 244.22 58.32 242.27 59.54
  C 240.49 60.64 234.59 59.65 232.56 59.33
  Q 231.66 59.19 231.63 60.10
  Q 231.18 73.40 231.82 86.39
  C 232.15 93.01 238.98 88.02 241.93 86.99
  A 1.17 1.15 48.4 0 1 242.83 87.05
  Q 244.99 88.10 244.23 90.23
  Q 241.63 97.53 233.22 98.11
  Q 219.64 99.03 219.25 85.44
  Q 218.91 73.23 219.00 60.52
  A 0.79 0.79 0.0 0 0 218.02 59.75
  Q 215.43 60.41 212.86 59.58
  A 1.41 1.37 -2.8 0 1 212.05 58.87
  Q 210.50 55.64 212.85 53.24
  A 1.45 1.42 -70.1 0 1 213.74 52.81
  Q 216.01 52.59 218.24 52.90
  Z"
/>
<path fill="#ffffff" d="
  M 293.4564 77.2916
  A 20.50 20.50 0.0 0 1 273.1000 97.9342
  L 268.7401 97.9647
  A 20.50 20.50 0.0 0 1 248.0975 77.6083
  L 248.0636 72.7484
  A 20.50 20.50 0.0 0 1 268.4200 52.1058
  L 272.7799 52.0753
  A 20.50 20.50 0.0 0 1 293.4225 72.4317
  L 293.4564 77.2916
  Z
  M 262.75 62.53
  C 259.68 68.48 261.58 79.71 263.84 85.99
  C 266.00 92.02 273.39 94.24 277.43 89.86
  C 282.74 84.09 280.71 63.28 273.54 59.07
  C 269.51 56.71 264.92 58.34 262.75 62.53
  Z"
/>
<path fill="#ffffff" d="
  M 314.17 57.26
  A 0.45 0.44 -31.3 0 0 314.91 57.44
  Q 320.55 51.89 328.76 52.10
  Q 344.42 52.49 348.22 67.52
  C 350.20 75.35 349.55 85.68 343.89 91.96
  C 337.37 99.20 323.95 100.56 316.80 93.23
  Q 316.08 92.49 316.07 93.53
  L 316.01 106.69
  A 1.28 1.26 -71.1 0 0 316.49 107.69
  L 319.58 110.12
  A 2.39 2.38 -53.7 0 1 320.07 113.34
  C 317.76 116.72 305.96 115.64 302.29 115.08
  C 299.78 114.70 298.39 113.19 299.22 110.68
  A 1.26 1.26 0.0 0 1 299.86 109.93
  C 302.47 108.60 303.49 106.90 303.49 103.83
  Q 303.50 84.28 303.44 64.75
  C 303.42 60.02 298.96 59.67 299.05 55.67
  A 1.39 1.35 65.7 0 1 299.35 54.84
  C 302.18 51.27 312.39 51.46 314.17 57.26
  Z
  M 324.39 58.53
  C 311.43 58.66 314.24 90.27 325.44 92.12
  C 330.37 92.93 333.91 89.01 334.93 84.44
  C 336.74 76.25 336.80 58.40 324.39 58.53
  Z"
/>
<path fill="#ffffff" d="
  M 410.97 92.59
  Q 400.37 102.03 387.80 95.93
  Q 384.30 94.24 382.87 89.46
  C 378.52 75.02 399.10 71.40 409.29 69.91
  Q 409.85 69.82 409.92 69.25
  Q 410.30 65.90 409.59 62.74
  C 408.20 56.47 401.93 55.52 397.96 60.49
  C 395.08 64.09 392.69 67.52 388.09 66.61
  C 384.07 65.82 383.05 61.22 385.57 58.30
  C 390.53 52.55 401.59 51.53 408.49 52.40
  C 429.73 55.07 419.32 76.12 423.16 88.43
  A 1.27 1.26 4.9 0 0 423.78 89.16
  L 427.29 90.94
  A 0.93 0.92 -74.3 0 1 427.79 91.84
  Q 427.54 94.80 424.75 96.20
  Q 416.21 100.52 411.64 92.69
  Q 411.37 92.23 410.97 92.59
  Z
  M 397.44 80.19
  C 391.37 85.52 399.02 94.38 406.58 89.84
  C 411.26 87.04 410.07 80.46 409.97 75.99
  A 0.60 0.60 0.0 0 0 409.34 75.40
  Q 402.57 75.67 397.44 80.19
  Z"
/>
<path fill="#ffffff" d="
  M 192.18 89.16
  A 0.50 0.50 0.0 0 0 191.25 88.91
  Q 185.52 99.10 175.11 97.83
  C 167.80 96.93 163.16 92.22 162.89 84.81
  C 162.65 78.26 162.65 70.60 162.49 62.49
  Q 162.48 61.94 162.05 61.60
  Q 159.80 59.83 158.49 57.32
  A 2.60 2.59 62.4 0 1 159.58 53.83
  C 165.19 50.84 175.15 52.40 175.21 60.56
  Q 175.28 70.61 175.25 80.65
  C 175.23 87.98 181.42 93.31 187.27 86.23
  C 191.07 81.63 194.87 65.68 190.80 60.90
  C 189.24 59.07 186.04 56.45 188.89 53.93
  C 191.44 51.66 201.44 52.05 203.73 56.24
  Q 204.76 58.13 204.76 62.42
  Q 204.75 74.35 204.74 86.26
  C 204.73 88.96 208.12 90.56 208.96 92.54
  C 211.62 98.80 192.02 101.36 192.18 89.16
  Z"
/>
<path fill="#ffffff" d="
  M 356.11 53.91
  C 358.26 52.14 365.64 52.42 367.95 53.48
  Q 371.96 55.31 371.76 60.75
  Q 371.41 70.40 372.15 88.98
  Q 372.17 89.42 372.50 89.70
  L 375.45 92.21
  A 2.49 2.46 24.3 0 1 376.30 94.42
  C 375.70 99.01 361.58 97.56 358.43 97.13
  C 355.97 96.80 354.32 95.41 355.00 92.83
  Q 355.14 92.32 355.62 92.10
  C 357.80 91.06 359.23 89.71 359.24 87.06
  Q 359.27 75.02 359.24 62.99
  C 359.24 60.36 351.88 57.39 356.11 53.91
  Z"
/>
</svg>
